<svg width="401" height="291" viewBox="0 0 401 291" fill="none" xmlns="http://www.w3.org/2000/svg">
<g id="services 1" clip-path="url(#clip0)">
<g id="laptop">
<g id="laptop_2">
<path id="Vector" d="M197.302 220.598L200.489 234.189C200.524 234.34 200.519 234.499 200.473 234.647L186.018 281.352C185.961 281.537 185.844 281.696 185.687 281.802C185.53 281.909 185.343 281.957 185.156 281.938C184.969 281.919 184.794 281.834 184.66 281.698C184.527 281.561 184.442 281.382 184.421 281.189L182.421 262.995C182.408 262.874 182.42 262.751 182.456 262.636L195.724 220.535C195.779 220.359 195.889 220.207 196.035 220.101C196.182 219.996 196.358 219.943 196.536 219.95C196.715 219.957 196.886 220.024 197.024 220.141C197.163 220.258 197.26 220.418 197.302 220.598Z" fill="#2F2E41"/>
<path id="Vector_2" d="M196.13 221.746L199.072 233.406L186.324 275.993L183.382 262.811L196.13 221.746Z" fill="#F2F2F2"/>
</g>
<path id="Vector_3" d="M131.898 285.118C132.388 286.639 182.891 284.611 183.382 284.104C183.809 283.47 184.171 282.79 184.46 282.077C184.921 281.063 185.343 280.049 185.343 280.049L183.382 263.633L133.369 261.797C133.369 261.797 132.118 275.709 131.863 282.077C131.8 283.684 131.8 284.814 131.898 285.118Z" fill="#2F2E41"/>
<path id="Vector_4" opacity="0.1" d="M177.008 265.853L177.988 280.049H155.923V265.853H177.008Z" fill="black"/>
<path id="Vector_5" opacity="0.1" d="M131.898 285.118C132.388 286.639 182.891 284.611 183.382 284.104C183.809 283.47 184.171 282.79 184.46 282.077H131.863C131.8 283.684 131.8 284.814 131.898 285.118Z" fill="black"/>
</g>
<g id="human">
<path id="Vector_6" d="M53.9358 231.885H67.6649L101.497 218.197C101.497 218.197 125.523 208.057 123.562 227.322C121.601 246.588 118.168 272.444 118.168 272.444C118.168 272.444 107.381 267.374 101.497 268.895C95.6135 270.416 99.5361 237.969 99.5361 237.969C99.5361 237.969 51.4842 261.797 47.0712 258.755C42.6583 255.713 41.6777 234.42 41.6777 234.42L53.9358 231.885Z" fill="#2F2E41"/>
<path id="Vector_7" opacity="0.1" d="M53.9358 231.885H67.6649L101.497 218.197C101.497 218.197 125.523 208.057 123.562 227.322C121.601 246.588 118.168 272.444 118.168 272.444C118.168 272.444 107.381 267.374 101.497 268.895C95.6135 270.416 99.5361 237.969 99.5361 237.969C99.5361 237.969 51.4842 261.797 47.0712 258.755C42.6583 255.713 41.6777 234.42 41.6777 234.42L53.9358 231.885Z" fill="black"/>
<g id="human_2">
<path id="Vector_8" d="M75.5661 187.43L92.1812 212.113L130.917 245.574C130.917 245.574 166.711 254.193 161.807 260.276C156.904 266.36 126.994 254.193 126.994 254.193C126.994 254.193 82.3747 220.732 80.9037 218.197C79.4327 215.662 63.252 191.834 63.252 191.834L75.5661 187.43Z" fill="#A0616A"/>
<path id="Vector_9" opacity="0.1" d="M75.5661 187.43L92.1812 212.113L130.917 245.574C130.917 245.574 166.711 254.193 161.807 260.276C156.904 266.36 126.994 254.193 126.994 254.193C126.994 254.193 82.3747 220.732 80.9037 218.197C79.4327 215.662 63.252 191.834 63.252 191.834L75.5661 187.43Z" fill="black"/>
<path id="Vector_10" d="M65.7036 167.498L76.4908 189.299C76.4908 189.299 74.0392 199.945 70.1166 200.959C66.194 201.973 49.5229 187.778 49.5229 187.778L65.7036 167.498Z" fill="#D0CDE1"/>
<path id="Vector_11" opacity="0.1" d="M65.7036 167.498L76.4908 189.299C76.4908 189.299 74.0392 199.945 70.1166 200.959C66.194 201.973 49.5229 187.778 49.5229 187.778L65.7036 167.498Z" fill="black"/>
<path id="Vector_12" d="M75.5101 197.41L95.6135 224.788L143.665 261.797C143.665 261.797 178.478 269.402 170.633 274.979C162.788 280.556 140.233 269.909 140.233 269.909C140.233 269.909 91.6909 243.039 81.394 231.885C71.0972 220.732 51.9745 201.973 51.9745 201.973L75.5101 197.41Z" fill="#A0616A"/>
</g>
<path id="Vector_13" d="M48.5422 239.997L54.4262 249.63L89.5419 238.207C97.2468 235.7 105.696 236.623 112.53 241.074C118.659 245.067 122.581 251.404 113.756 260.783C96.1038 279.542 84.336 269.402 84.336 269.402C84.336 269.402 25.0066 298.3 15.2001 284.104C5.3936 269.909 4.90329 262.811 4.90329 262.811C4.90329 262.811 42.6583 238.476 48.5422 239.997Z" fill="#2F2E41"/>
<path id="Vector_14" d="M122.091 273.458C122.091 273.458 137.781 284.104 119.149 289.174C100.517 294.244 86.7876 287.146 86.7876 287.146C86.7876 287.146 70.6069 287.146 70.6069 278.528C70.6069 269.909 76.0005 268.895 76.0005 268.895L92.6715 271.43C92.6715 271.43 112.775 265.853 122.091 273.458Z" fill="#D0CDE1"/>
<g id="Group 1">
<path id="Vector_15" d="M73.0585 160.401C85.2445 160.401 95.1231 150.186 95.1231 137.587C95.1231 124.987 85.2445 114.772 73.0585 114.772C60.8725 114.772 50.9939 124.987 50.9939 137.587C50.9939 150.186 60.8725 160.401 73.0585 160.401Z" fill="#A0616A"/>
<path id="Vector_16" d="M71.5875 157.866C71.5875 157.866 64.2326 171.047 62.7617 178.145C61.2907 185.243 40.697 163.95 40.697 163.95L38.0002 156.598C38.0002 156.598 57.3681 147.219 55.8971 139.614C54.4261 132.01 71.5875 157.866 71.5875 157.866Z" fill="#A0616A"/>
<path id="Vector_17" d="M91.1592 131.847C92.661 132.54 94.1502 133.359 95.7829 133.56C97.4156 133.761 99.2749 133.171 100.047 131.671C100.465 130.86 100.512 129.907 100.532 128.989C100.591 126.205 100.396 123.195 98.69 121.041C97.6041 119.669 96.019 118.805 94.895 117.467C94.0897 116.509 93.5537 115.347 92.9766 114.226C90.7906 109.981 87.554 105.901 83.0558 104.677C81.1775 104.166 79.2071 104.191 77.265 104.22L65.9373 104.385C64.1042 104.412 62.2428 104.443 60.488 104.991C56.8419 106.131 54.1872 109.301 51.7559 112.333C49.9369 114.601 48.1131 116.893 46.7479 119.48C44.7907 123.254 43.801 127.484 43.8732 131.766C43.858 132.864 43.9951 133.959 44.2804 135.017C44.6141 135.987 45.0276 136.926 45.5162 137.824C47.6405 142.138 48.9019 147.527 46.5095 151.688C50.6653 149.933 54.7772 147.632 57.5186 143.956C58.745 142.312 59.7067 140.387 61.3411 139.18C62.9755 137.973 65.6386 137.869 66.6872 139.64C67.0476 140.356 67.2332 141.153 67.2278 141.96C67.3044 143.289 67.3023 144.67 67.8474 145.876C68.3925 147.083 69.6909 148.056 70.9305 147.695C73.0653 147.074 72.8609 143.686 74.5052 142.147C75.7539 140.978 77.6805 141.202 79.2848 140.671C81.1539 140.053 82.5565 138.379 83.3556 136.525C83.963 135.117 83.9542 131.43 85.1036 130.667C86.5451 129.711 89.823 131.232 91.1592 131.847Z" fill="#2F2E41"/>
</g>
<path id="Vector_18" d="M36.2487 154.193C37.2413 153.92 38.2864 153.922 39.2776 154.201C42.4251 155.075 49.481 157.388 50.9938 160.908C52.9551 165.471 59.8197 172.568 59.8197 172.568C59.8197 172.568 69.1359 182.201 67.1746 188.792C65.2133 195.383 57.8584 202.987 57.8584 202.987C57.8584 202.987 59.8197 234.42 50.0132 242.532C40.2067 250.644 36.2841 245.067 36.2841 252.672C36.2841 260.276 5.88391 284.104 0 269.402C0 269.402 2.94196 242.025 1.9613 232.392C0.994794 222.898 2.40971 163.666 36.2487 154.193Z" fill="#D0CDE1"/>
<path id="Vector_19" d="M51.9745 166.991C51.9745 166.991 81.8844 189.806 76.4908 199.438C76.4908 199.438 58.3487 208.564 54.4261 208.057C50.5035 207.55 35.3034 189.806 31.3808 188.285C27.4582 186.764 25.4969 159.387 51.9745 166.991Z" fill="#D0CDE1"/>
</g>
<g id="browser">
<path id="Vector_20" d="M185.606 116.541C198.983 116.541 209.828 105.328 209.828 91.4959C209.828 77.6637 198.983 66.4505 185.606 66.4505C172.228 66.4505 161.383 77.6637 161.383 91.4959C161.383 105.328 172.228 116.541 185.606 116.541Z" fill="#F2F2F2"/>
<path id="Vector_21" d="M385.671 58.9687H249.932V29.6003H385.671V58.9687ZM250.53 58.3504H385.073V30.2185H250.53V58.3504Z" fill="#3F3D56"/>
<g id="Browser">
<path id="Vector_22" d="M375.805 35.474H240.664V64.2241H375.805V35.474Z" fill="black"/>
<path id="Vector_23" d="M155.235 8.03769C156.391 8.03769 157.328 7.06883 157.328 5.87367C157.328 4.67852 156.391 3.70966 155.235 3.70966C154.079 3.70966 153.142 4.67852 153.142 5.87367C153.142 7.06883 154.079 8.03769 155.235 8.03769Z" fill="black"/>
<path id="Vector_24" d="M162.41 8.03769C163.566 8.03769 164.503 7.06883 164.503 5.87367C164.503 4.67852 163.566 3.70966 162.41 3.70966C161.255 3.70966 160.317 4.67852 160.317 5.87367C160.317 7.06883 161.255 8.03769 162.41 8.03769Z" fill="black"/>
<path id="Vector_25" d="M169.586 8.03769C170.742 8.03769 171.679 7.06883 171.679 5.87367C171.679 4.67852 170.742 3.70966 169.586 3.70966C168.43 3.70966 167.493 4.67852 167.493 5.87367C167.493 7.06883 168.43 8.03769 169.586 8.03769Z" fill="black"/>
<path id="Vector_26" d="M401 169.409H149.255V0H401V169.409ZM149.853 168.791H400.402V0.618284H149.853V168.791Z" fill="#3F3D56"/>
<path id="Vector_27" d="M400.701 9.37781H149.554V9.99609H400.701V9.37781Z" fill="#3F3D56"/>
<path id="Vector_28" d="M155.833 7.41941C155.36 7.41941 154.897 7.27436 154.504 7.00261C154.111 6.73086 153.804 6.34461 153.623 5.8927C153.442 5.4408 153.395 4.94353 153.487 4.46379C153.579 3.98405 153.807 3.54338 154.141 3.19751C154.476 2.85164 154.902 2.61609 155.366 2.52067C155.83 2.42524 156.311 2.47422 156.748 2.6614C157.185 2.84859 157.559 3.16558 157.822 3.57228C158.084 3.97899 158.225 4.45714 158.225 4.94628C158.224 5.60196 157.972 6.23057 157.523 6.69421C157.075 7.15785 156.467 7.41865 155.833 7.41941ZM155.833 3.09143C155.478 3.09143 155.131 3.20021 154.836 3.40403C154.541 3.60784 154.311 3.89753 154.175 4.23646C154.04 4.57539 154.004 4.94834 154.073 5.30814C154.143 5.66795 154.313 5.99845 154.564 6.25785C154.815 6.51726 155.135 6.69392 155.483 6.76549C155.831 6.83706 156.191 6.80032 156.519 6.65993C156.847 6.51954 157.127 6.2818 157.324 5.97678C157.521 5.67175 157.627 5.31313 157.627 4.94628C157.626 4.45452 157.437 3.98306 157.101 3.63533C156.764 3.2876 156.308 3.092 155.833 3.09143V3.09143Z" fill="#3F3D56"/>
<path id="Vector_29" d="M163.008 7.41941C162.535 7.41941 162.073 7.27436 161.68 7.00261C161.286 6.73086 160.98 6.34461 160.799 5.8927C160.618 5.4408 160.57 4.94353 160.663 4.46379C160.755 3.98405 160.983 3.54338 161.317 3.19751C161.652 2.85164 162.078 2.61609 162.542 2.52067C163.006 2.42524 163.487 2.47422 163.924 2.6614C164.361 2.84859 164.734 3.16558 164.997 3.57228C165.26 3.97899 165.4 4.45714 165.4 4.94628C165.4 5.60196 165.147 6.23057 164.699 6.69421C164.251 7.15785 163.643 7.41865 163.008 7.41941V7.41941ZM163.008 3.09143C162.654 3.09143 162.307 3.20021 162.012 3.40403C161.717 3.60784 161.487 3.89753 161.351 4.23646C161.215 4.57539 161.18 4.94834 161.249 5.30814C161.318 5.66795 161.489 5.99845 161.74 6.25785C161.991 6.51726 162.31 6.69392 162.658 6.76549C163.006 6.83706 163.367 6.80032 163.695 6.65993C164.023 6.51954 164.303 6.2818 164.5 5.97678C164.697 5.67175 164.802 5.31313 164.802 4.94628C164.802 4.45452 164.613 3.98306 164.276 3.63533C163.94 3.2876 163.484 3.092 163.008 3.09143V3.09143Z" fill="#3F3D56"/>
<path id="Vector_30" d="M300.61 88.1826H256.659V94.3654H300.61V88.1826Z" fill="#F2F2F2"/>
<path id="Vector_31" d="M369.676 88.1826H325.725V94.3654H369.676V88.1826Z" fill="#F2F2F2"/>
<path id="Vector_32" d="M303.301 91.5831H258.752V84.782H303.301V91.5831ZM259.35 90.9648H302.703V85.4003H259.35V90.9648Z" fill="#3F3D56"/>
<path id="Vector_33" d="M300.61 136.099H256.659V142.282H300.61V136.099Z" fill="#F2F2F2"/>
<path id="Vector_34" d="M303.301 139.5H258.752V132.699H303.301V139.5ZM259.35 138.882H302.703V133.317H259.35V138.882Z" fill="#3F3D56"/>
<path id="Vector_35" d="M369.825 111.523H256.809V117.706H369.825V111.523Z" fill="#F2F2F2"/>
<path id="Vector_36" d="M372.516 115.542H258.902V108.74H372.516V115.542ZM259.5 114.923H371.918V109.359H259.5V114.923Z" fill="#3F3D56"/>
<path id="Vector_37" d="M372.366 91.5831H327.818V84.782H372.366V91.5831ZM328.416 90.9648H371.768V85.4003H328.416V90.9648Z" fill="#3F3D56"/>
</g>
<path id="Vector_38" d="M189.705 109.991C184.84 109.991 180.085 108.5 176.041 105.705C171.996 102.911 168.843 98.939 166.982 94.2922C165.12 89.6453 164.633 84.5321 165.582 79.599C166.531 74.6659 168.874 70.1346 172.313 66.578C175.753 63.0215 180.136 60.5994 184.907 59.6182C189.678 58.6369 194.623 59.1405 199.117 61.0653C203.611 62.9901 207.452 66.2496 210.155 70.4317C212.858 74.6138 214.3 79.5305 214.3 84.5603C214.293 91.3026 211.699 97.7666 207.088 102.534C202.477 107.302 196.226 109.983 189.705 109.991ZM189.705 59.9002C184.988 59.9002 180.377 61.3464 176.455 64.0561C172.532 66.7658 169.476 70.6172 167.67 75.1233C165.865 79.6293 165.393 84.5876 166.313 89.3712C167.234 94.1548 169.505 98.5488 172.84 101.998C176.176 105.446 180.426 107.795 185.052 108.747C189.678 109.698 194.474 109.21 198.832 107.343C203.19 105.477 206.915 102.316 209.535 98.2607C212.156 94.2053 213.555 89.4376 213.555 84.5603C213.548 78.0223 211.033 71.7542 206.561 67.1311C202.09 62.5081 196.028 59.9076 189.705 59.9002Z" fill="#3F3D56"/>
<g id="Vector 1" style="mix-blend-mode:darken">
<path d="M149.434 168.768V184.18H400.976V168.768" stroke="black"/>
</g>
</g>
</g>
<defs>
<clipPath id="clip0">
<rect width="401" height="291" fill="white"/>
</clipPath>
</defs>
</svg>
