<svg width="577" height="351" viewBox="0 0 577 351" fill="none" xmlns="http://www.w3.org/2000/svg">
<g id="Group 1">
<path id="Vector" d="M335.211 142.94C348.164 142.94 358.665 132.485 358.665 119.588C358.665 106.691 348.164 96.2353 335.211 96.2353C322.258 96.2353 311.758 106.691 311.758 119.588C311.758 132.485 322.258 142.94 335.211 142.94Z" fill="#2F2E41"/>
<path id="Vector_2" d="M429.807 142.94C442.76 142.94 453.26 132.485 453.26 119.588C453.26 106.691 442.76 96.2353 429.807 96.2353C416.854 96.2353 406.354 106.691 406.354 119.588C406.354 132.485 416.854 142.94 429.807 142.94Z" fill="#2F2E41"/>
<path id="Vector_3" d="M524.402 142.94C537.355 142.94 547.856 132.485 547.856 119.588C547.856 106.691 537.355 96.2353 524.402 96.2353C511.449 96.2353 500.949 106.691 500.949 119.588C500.949 132.485 511.449 142.94 524.402 142.94Z" fill="#2F2E41"/>
<path id="Vector_4" d="M10.3814 11.1194C11.6767 11.1194 12.7267 10.0739 12.7267 8.78418C12.7267 7.49446 11.6767 6.44893 10.3814 6.44893C9.08609 6.44893 8.03604 7.49446 8.03604 8.78418C8.03604 10.0739 9.08609 11.1194 10.3814 11.1194Z" fill="#F86B75"/>
<path id="Vector_5" d="M17.4174 11.1194C18.7127 11.1194 19.7627 10.0739 19.7627 8.78418C19.7627 7.49446 18.7127 6.44893 17.4174 6.44893C16.1221 6.44893 15.0721 7.49446 15.0721 8.78418C15.0721 10.0739 16.1221 11.1194 17.4174 11.1194Z" fill="#FAD375"/>
<path id="Vector_6" d="M24.4534 11.1194C25.7487 11.1194 26.7988 10.0739 26.7988 8.78418C26.7988 7.49446 25.7487 6.44893 24.4534 6.44893C23.1581 6.44893 22.1081 7.49446 22.1081 8.78418C22.1081 10.0739 23.1581 11.1194 24.4534 11.1194Z" fill="#8BCC55"/>
<path id="Vector_7" d="M214.035 44.9806H52.9884V94.7994H214.035V44.9806Z" fill="#2F2E41"/>
<path id="Vector_8" d="M285.568 1H1V169.138H285.568V1Z" stroke="#3F3D56" stroke-miterlimit="10"/>
<path id="Vector_9" d="M1 13.7336H285.568" stroke="#3F3D56" stroke-miterlimit="10"/>
<path id="Vector_10" d="M11.1632 9.5626C12.4585 9.5626 13.5085 8.51707 13.5085 7.22735C13.5085 5.93762 12.4585 4.89209 11.1632 4.89209C9.86786 4.89209 8.81781 5.93762 8.81781 7.22735C8.81781 8.51707 9.86786 9.5626 11.1632 9.5626Z" stroke="#3F3D56" stroke-miterlimit="10"/>
<path id="Vector_11" d="M18.1992 9.5626C19.4945 9.5626 20.5445 8.51707 20.5445 7.22735C20.5445 5.93762 19.4945 4.89209 18.1992 4.89209C16.9039 4.89209 15.8539 5.93762 15.8539 7.22735C15.8539 8.51707 16.9039 9.5626 18.1992 9.5626Z" stroke="#3F3D56" stroke-miterlimit="10"/>
<path id="Vector_12" d="M25.2352 9.5626C26.5305 9.5626 27.5805 8.51707 27.5805 7.22735C27.5805 5.93762 26.5305 4.89209 25.2352 4.89209C23.9399 4.89209 22.8899 5.93762 22.8899 7.22735C22.8899 8.51707 23.9399 9.5626 25.2352 9.5626Z" stroke="#3F3D56" stroke-miterlimit="10"/>
<path id="Vector_13" d="M223.808 35.2504H62.7607V85.0692H223.808V35.2504Z" stroke="#3F3D56" stroke-miterlimit="10"/>
<path id="Vector_14" d="M248.434 116.595H32.6621V123.037H248.434V116.595Z" fill="#F2F2F2"/>
<path id="Vector_15" d="M248.434 132.056H32.6621V138.498H248.434V132.056Z" fill="#F2F2F2"/>
<path id="Vector_16" d="M248.434 147.517H32.6621V153.959H248.434V147.517Z" fill="#F2F2F2"/>
<path id="Vector_17" d="M250.779 113.481H35.0075V119.924H250.779V113.481Z" stroke="#3F3D56" stroke-miterlimit="10"/>
<path id="Vector_18" d="M250.779 128.942H35.0075V135.385H250.779V128.942Z" stroke="#3F3D56" stroke-miterlimit="10"/>
<path id="Vector_19" d="M250.779 144.403H35.0075V150.846H250.779V144.403Z" stroke="#3F3D56" stroke-miterlimit="10"/>
<path id="Vector_20" d="M69.4058 191.981C70.7011 191.981 71.7512 190.935 71.7512 189.646C71.7512 188.356 70.7011 187.31 69.4058 187.31C68.1105 187.31 67.0605 188.356 67.0605 189.646C67.0605 190.935 68.1105 191.981 69.4058 191.981Z" fill="#F86B75"/>
<path id="Vector_21" d="M76.4419 191.981C77.7372 191.981 78.7872 190.935 78.7872 189.646C78.7872 188.356 77.7372 187.31 76.4419 187.31C75.1466 187.31 74.0965 188.356 74.0965 189.646C74.0965 190.935 75.1466 191.981 76.4419 191.981Z" fill="#FAD375"/>
<path id="Vector_22" d="M83.4779 191.981C84.7732 191.981 85.8233 190.935 85.8233 189.646C85.8233 188.356 84.7732 187.31 83.4779 187.31C82.1826 187.31 81.1326 188.356 81.1326 189.646C81.1326 190.935 82.1826 191.981 83.4779 191.981Z" fill="#8BCC55"/>
<path id="Vector_23" d="M273.06 225.842H112.013V275.661H273.06V225.842Z" fill="#2F2E41"/>
<path id="Vector_24" d="M344.593 216.112V350H60.0245V181.862H291.432" stroke="#3F3D56" stroke-miterlimit="10"/>
<path id="Vector_25" d="M60.0245 194.595H291.823" stroke="#3F3D56" stroke-miterlimit="10"/>
<path id="Vector_26" d="M70.1876 190.424C71.4829 190.424 72.533 189.378 72.533 188.089C72.533 186.799 71.4829 185.753 70.1876 185.753C68.8923 185.753 67.8423 186.799 67.8423 188.089C67.8423 189.378 68.8923 190.424 70.1876 190.424Z" stroke="#3F3D56" stroke-miterlimit="10"/>
<path id="Vector_27" d="M77.2236 190.424C78.5189 190.424 79.569 189.378 79.569 188.089C79.569 186.799 78.5189 185.753 77.2236 185.753C75.9283 185.753 74.8783 186.799 74.8783 188.089C74.8783 189.378 75.9283 190.424 77.2236 190.424Z" stroke="#3F3D56" stroke-miterlimit="10"/>
<path id="Vector_28" d="M84.2597 190.424C85.555 190.424 86.605 189.378 86.605 188.089C86.605 186.799 85.555 185.753 84.2597 185.753C82.9644 185.753 81.9143 186.799 81.9143 188.089C81.9143 189.378 82.9644 190.424 84.2597 190.424Z" stroke="#3F3D56" stroke-miterlimit="10"/>
<path id="Vector_29" d="M282.832 216.112H121.785V265.931H282.832V216.112Z" stroke="#3F3D56" stroke-miterlimit="10"/>
<path id="Vector_30" d="M300.813 57.3144C302.108 57.3144 303.158 56.2688 303.158 54.9791C303.158 53.6894 302.108 52.6439 300.813 52.6439C299.518 52.6439 298.468 53.6894 298.468 54.9791C298.468 56.2688 299.518 57.3144 300.813 57.3144Z" fill="#F86B75"/>
<path id="Vector_31" d="M307.849 57.3144C309.144 57.3144 310.194 56.2688 310.194 54.9791C310.194 53.6894 309.144 52.6439 307.849 52.6439C306.554 52.6439 305.504 53.6894 305.504 54.9791C305.504 56.2688 306.554 57.3144 307.849 57.3144Z" fill="#FAD375"/>
<path id="Vector_32" d="M314.885 57.3144C316.18 57.3144 317.23 56.2688 317.23 54.9791C317.23 53.6894 316.18 52.6439 314.885 52.6439C313.59 52.6439 312.54 53.6894 312.54 54.9791C312.54 56.2688 313.59 57.3144 314.885 57.3144Z" fill="#8BCC55"/>
<path id="Vector_33" d="M576 47.1949H291.432V215.333H576V47.1949Z" stroke="#3F3D56" stroke-miterlimit="10"/>
<path id="Vector_34" d="M291.432 59.9285H576" stroke="#3F3D56" stroke-miterlimit="10"/>
<path id="Vector_35" d="M301.595 55.7575C302.89 55.7575 303.94 54.712 303.94 53.4223C303.94 52.1326 302.89 51.087 301.595 51.087C300.3 51.087 299.249 52.1326 299.249 53.4223C299.249 54.712 300.3 55.7575 301.595 55.7575Z" stroke="#3F3D56" stroke-miterlimit="10"/>
<path id="Vector_36" d="M308.631 55.7575C309.926 55.7575 310.976 54.712 310.976 53.4223C310.976 52.1326 309.926 51.087 308.631 51.087C307.336 51.087 306.286 52.1326 306.286 53.4223C306.286 54.712 307.336 55.7575 308.631 55.7575Z" stroke="#3F3D56" stroke-miterlimit="10"/>
<path id="Vector_37" d="M315.667 55.7575C316.962 55.7575 318.012 54.712 318.012 53.4223C318.012 52.1326 316.962 51.087 315.667 51.087C314.372 51.087 313.322 52.1326 313.322 53.4223C313.322 54.712 314.372 55.7575 315.667 55.7575Z" stroke="#3F3D56" stroke-miterlimit="10"/>
<path id="Vector_38" d="M339.12 139.048C352.073 139.048 362.574 128.593 362.574 115.696C362.574 102.799 352.073 92.3432 339.12 92.3432C326.167 92.3432 315.667 102.799 315.667 115.696C315.667 128.593 326.167 139.048 339.12 139.048Z" stroke="#3F3D56" stroke-miterlimit="10"/>
<path id="Vector_39" d="M433.716 139.048C446.669 139.048 457.169 128.593 457.169 115.696C457.169 102.799 446.669 92.3432 433.716 92.3432C420.763 92.3432 410.262 102.799 410.262 115.696C410.262 128.593 420.763 139.048 433.716 139.048Z" stroke="#3F3D56" stroke-miterlimit="10"/>
<path id="Vector_40" d="M528.311 139.048C541.264 139.048 551.765 128.593 551.765 115.696C551.765 102.799 541.264 92.3432 528.311 92.3432C515.358 92.3432 504.858 102.799 504.858 115.696C504.858 128.593 515.358 139.048 528.311 139.048Z" stroke="#3F3D56" stroke-miterlimit="10"/>
<path id="Vector_41" d="M367.655 158.898H303.549V165.125H367.655V158.898Z" fill="#F2F2F2"/>
<path id="Vector_42" d="M463.033 158.898H398.927V165.125H463.033V158.898Z" fill="#F2F2F2"/>
<path id="Vector_43" d="M558.41 158.898H494.304V165.125H558.41V158.898Z" fill="#F2F2F2"/>
<path id="Vector_44" d="M370.782 156.563H306.676V162.79H370.782V156.563Z" stroke="#3F3D56" stroke-miterlimit="10"/>
<path id="Vector_45" d="M466.16 156.563H402.054V162.79H466.16V156.563Z" stroke="#3F3D56" stroke-miterlimit="10"/>
<path id="Vector_46" d="M561.537 156.563H497.431V162.79H561.537V156.563Z" stroke="#3F3D56" stroke-miterlimit="10"/>
<path id="Vector_47" d="M119.831 295.121H70.5785V337.156H119.831V295.121Z" fill="#F2F2F2"/>
<path id="Vector_48" d="M210.908 295.51H161.656V337.545H210.908V295.51Z" fill="#F2F2F2"/>
<path id="Vector_49" d="M301.986 295.9H252.734V337.934H301.986V295.9Z" fill="#F2F2F2"/>
<path id="Vector_50" d="M126.867 287.337H77.6146V329.372H126.867V287.337Z" stroke="#3F3D56" stroke-miterlimit="10"/>
<path id="Vector_51" d="M217.944 287.726H168.692V329.761H217.944V287.726Z" stroke="#3F3D56" stroke-miterlimit="10"/>
<path id="Vector_52" d="M309.022 288.115H259.77V330.15H309.022V288.115Z" stroke="#3F3D56" stroke-miterlimit="10"/>
</g>
</svg>
