<svg width="1342" height="811" viewBox="0 0 1342 811" fill="none" xmlns="http://www.w3.org/2000/svg">
<g id="latest 1">
<g id="browserWindow">
<path id="Vector" d="M223.463 133L150.796 395.807L606.333 527.552L679 264.745L223.463 133Z" fill="#3F3D56"/>
<path id="Vector_2" d="M231.77 147.722C233.748 147.722 235.351 146.206 235.351 144.337C235.351 142.468 233.748 140.953 231.77 140.953C229.793 140.953 228.189 142.468 228.189 144.337C228.189 146.206 229.793 147.722 231.77 147.722Z" fill="black"/>
<path id="Vector_3" d="M242.513 152.234C245.15 152.234 247.288 150.214 247.288 147.722C247.288 145.229 245.15 143.209 242.513 143.209C239.876 143.209 237.739 145.229 237.739 147.722C237.739 150.214 239.876 152.234 242.513 152.234Z" fill="black"/>
<path id="Vector_4" d="M255.643 154.49C257.621 154.49 259.224 152.975 259.224 151.106C259.224 149.237 257.621 147.722 255.643 147.722C253.666 147.722 252.062 149.237 252.062 151.106C252.062 152.975 253.666 154.49 255.643 154.49Z" fill="black"/>
<path id="Vector_5" d="M464.533 299.702C458.637 298.529 452.572 298.68 446.736 300.143C448.435 294.006 448.864 287.556 447.994 281.23C441.983 283.518 436.544 287.209 432.086 292.027C430.686 285.467 427.89 279.326 423.909 274.066C420.018 278.977 417.172 284.707 415.564 290.872C411.32 286.411 406.229 282.942 400.622 280.693C400.622 280.693 397.966 294.902 404.361 306.561C410.053 316.938 420.989 321.795 423.327 322.738L423.381 322.807L423.411 322.772C423.648 322.867 423.781 322.915 423.781 322.915C423.781 322.915 423.831 322.642 423.9 322.155C423.942 322.1 423.985 322.045 424.031 321.983C424.04 322.061 424.049 322.132 424.058 322.202C423.874 322.655 423.781 322.915 423.781 322.915C423.781 322.915 423.918 322.947 424.167 322.997L424.175 323.043L424.256 323.014C426.717 323.498 438.452 325.385 448.467 319.68C459.721 313.269 464.533 299.702 464.533 299.702Z" fill="black"/>
<path id="Vector_6" d="M443.047 262.786C448.321 262.786 452.596 258.24 452.596 252.633C452.596 247.026 448.321 242.48 443.047 242.48C437.773 242.48 433.498 247.026 433.498 252.633C433.498 258.24 437.773 262.786 443.047 262.786Z" fill="black"/>
<path id="Vector_7" d="M565.812 383.474L271.023 298.219L269.209 304.778L563.998 390.033L565.812 383.474Z" fill="black"/>
<path id="Vector_8" d="M340.405 353.571L289.58 338.872L275.207 390.852L326.033 405.551L340.405 353.571Z" fill="black"/>
<path id="Vector_9" d="M434.796 380.869L383.97 366.17L369.598 418.151L420.423 432.85L434.796 380.869Z" fill="black"/>
<path id="Vector_10" d="M529.187 408.168L478.361 393.469L463.988 445.449L514.814 460.148L529.187 408.168Z" fill="black"/>
<path id="Vector_11" d="M316.623 414.057L278.867 403.138L277.635 407.593L315.391 418.513L316.623 414.057Z" fill="black"/>
<path id="Vector_12" d="M411.014 441.356L373.258 430.436L372.026 434.892L409.782 445.811L411.014 441.356Z" fill="black"/>
<path id="Vector_13" d="M505.404 468.654L467.648 457.735L466.416 462.19L504.173 473.11L505.404 468.654Z" fill="black"/>
</g>
<path id="Vector_14" d="M436 516H493.057V540.643H459.861V565.286H493.06V589.928H436V516ZM504.47 516H561.529V537.429H528.331V541.714H561.529V591H504.471V568.497H537.669V564.212H504.468V516H504.47ZM572.941 516H630V537.429H596.803V541.714H630V591H572.941V568.497H606.139V564.212H572.943V516H572.941Z" fill="#3F3D56"/>
<path id="Vector_15" d="M80 458H103.321V481.116H124.654V458H147.976V528H124.655V504.56H103.322V528H80.0014V458H80ZM178.642 481.214H158.115V458H222.507V481.214H201.967V528H178.646V481.214H178.642ZM232.727 458H257.043L272.001 482.596L286.945 458H311.271V528H288.045V493.304L272.001 518.193H271.599L255.544 493.304V528H232.727V458ZM322.877 458H346.205V504.863H379V528H322.875V458H322.877Z" fill="#3F3D56"/>
</g>
</svg>
